<?xml version="1.0" encoding="utf-8"?>
<!-- Generator: Adobe Illustrator 20.1.0, SVG Export Plug-In . SVG Version: 6.00 Build 0)  -->
<svg version="1.1" id="Layer_1" xmlns="http://www.w3.org/2000/svg" xmlns:xlink="http://www.w3.org/1999/xlink" x="0px" y="0px"
	 viewBox="0 0 100 100" style="enable-background:new 0 0 100 100;" xml:space="preserve">
<style type="text/css">
	.st0{fill:#FFFFFF;}
	.st1{fill:none;}
</style>
<path class="st0" d="M16.7,79.7c0,0,33,0,50,0c5,0,5-5,0-5c-17,0-34,0-50,0C13.7,74.7,13.7,79.7,16.7,79.7z"/>
<g>
	<path class="st1" d="M7.2,95.7h67c0.6,0,1.4-0.8,1.4-1.4V72.9c-1,0.2-2.2,0.5-3.3,0.5c-6.2,0-11.9-2.8-15.7-6.8
		c-17.4,0-40.6,0-40.6,0s-1.5,0-1.4,0c-0.1,0,2,0,2,0c-3,0-3-6,0-6c10,0,24.2,0,36.9,0c-1.2-2-1.8-5-1.9-8c-16.5,0-35.5,0-35.5,0
		s-1.5,0-1.4,0c-0.1,0,2,0,2,0c-3,0-3-4,0-4c10,0,23.1,0,35.3,0c0.7-3,2.1-7,4.1-10c-17.4,0-40,0-40,0s-1.5,0-1.4,0c-0.1,0,2,0,2,0
		c-3,0-3-5,0-5c13,0,29.5,0,45,0c3.1-2,6.9-2.4,10.7-2.4c1.1,0,2.3,0.6,3.3,0.8V6.9c0-0.6-0.8-2.2-1.4-2.2h-67
		c-0.6,0-1.5,1.6-1.5,2.2v87.4C5.7,94.9,6.6,95.7,7.2,95.7z M16.7,20.7c15,0,32,0,49,0c5,0,5,5,0,5c-17,0-49.6,0-49.6,0
		s-1.5,0-1.4,0c-0.1,0,2,0,2,0C13.7,25.7,13.7,20.7,16.7,20.7z M16.7,74.7c15,0,32,0,49,0c5,0,5,4,0,4c-17,0-49.6,0-49.6,0
		s-1.5,0-1.4,0c-0.1,0,2,0,2,0C13.7,78.7,13.7,74.7,16.7,74.7z"/>
	<path class="st0" d="M7.2,99.7h67c2.9,0,5.4-2.6,5.4-5.4V71.9c0-0.2,0.7-0.3,1.1-0.5l7.3,7.4c2.3,2.3,6,2.3,8.4,0
		c2.3-2.3,2.3-6.1,0-8.4l-6.8-6.8c0.8-1.2,1.5-2.6,2-4c0.8-2.2,1.4-4.6,1.4-7.1c0-8.9-5.4-16.5-13.4-19.4V6.9c0-2.9-2.6-6.2-5.4-6.2
		h-67C4.3,0.7,1.7,4,1.7,6.9v87.4C1.7,97.1,4.3,99.7,7.2,99.7z M86.2,54.1c-0.5,4.3-3,8.1-6.5,10.3c-2.2,1.3-4.7,2.1-7.4,2.1
		c-7.7,0-14-6.3-14-14s6.3-14,14-14s14,6.3,14,14C86.3,53,86.2,53.6,86.2,54.1z M5.7,6.9c0-0.6,0.9-2.2,1.5-2.2h67
		c0.6,0,1.4,1.6,1.4,2.2v25.2c-1-0.2-2.2-0.8-3.3-0.8c-3.9,0-7.6,0.4-10.7,2.4c-15.4,0-32,0-45,0c-3,0-3,5,0,5c0,0,22.1,0,39.4,0
		c-2,3-3.5,7-4.1,10c-12.2,0-25.3,0-35.3,0c-3,0-3,4,0,4c0,0,18.4,0,34.9,0c0.1,3,0.8,6,1.9,8c-12.7,0-26.9,0-36.9,0c-3,0-3,6,0,6
		c0,0,22.6,0,40,0c3.8,4,9.5,6.8,15.7,6.8c1.1,0,2.3-0.4,3.3-0.5v21.3c0,0.6-0.8,1.4-1.4,1.4h-67c-0.6,0-1.5-0.8-1.5-1.4V6.9H5.7z"
		/>
	<path class="st0" d="M16.7,25.7c0,0,32,0,49,0c5,0,5-5,0-5c-17,0-34,0-49,0C13.7,20.7,13.7,25.7,16.7,25.7z"/>
	<path class="st0" d="M77.2,46l-5.6,5.6l-3.1-3.1c-1.3-1.3-3.5-1.3-4.8,0s-1.3,3.5,0,4.8l4.9,4.9c0.1,0.2,0.3,0.4,0.5,0.6l0,0
		c1.3,1.3,3.5,1.3,4.8,0l8.1-8.1c1.3-1.3,1.3-3.5,0-4.8C80.6,44.7,78.5,44.7,77.2,46z"/>
</g>
</svg>
