<?xml version="1.0" encoding="utf-8"?>
<!-- Generator: Adobe Illustrator 20.1.0, SVG Export Plug-In . SVG Version: 6.00 Build 0)  -->
<svg version="1.1" id="Layer_1" xmlns="http://www.w3.org/2000/svg" xmlns:xlink="http://www.w3.org/1999/xlink" x="0px" y="0px"
	 viewBox="0 0 100 100" style="enable-background:new 0 0 100 100;" xml:space="preserve">
<style type="text/css">
	.st0{fill:none;}
	.st1{fill:#FFFFFF;}
</style>
<g>
	<path class="st0" d="M92.8,50c0-1.2-0.1-2.5-0.2-3.7l-8.5-3.5l-0.3-1.4c-0.5-1.9-1.2-3.9-2-5.8l-0.6-1.3l4.4-8.1
		c-2.2-3.3-4.9-6.4-8-9L69,20.8L67.7,20c-1.8-1-3.6-1.9-5.5-2.6l-1.3-0.5l-2.6-8.8c-2.7-0.5-5.5-0.8-8.3-0.8c-1.2,0-2.5,0.1-3.7,0.2
		L42.8,16l-1.4,0.3c-1.9,0.5-3.9,1.2-5.8,2l-1.3,0.6l-8.1-4.4c-3.3,2.2-6.4,4.9-9,8l3.5,8.5L20,32.3c-1,1.8-1.9,3.6-2.6,5.5
		l-0.5,1.3l-8.8,2.6c-0.5,2.7-0.8,5.5-0.8,8.3c0,1.2,0.1,2.5,0.2,3.7l8.5,3.5l0.3,1.4c0.5,1.9,1.2,3.9,2,5.8l0.6,1.3l-4.4,8.1
		c2.2,3.3,4.9,6.4,8,9l8.5-3.5l1.2,0.7c1.8,1,3.6,1.9,5.5,2.6l1.3,0.5l2.6,8.8c2.7,0.5,5.5,0.8,8.3,0.8c1.2,0,2.5-0.1,3.7-0.2
		l3.5-8.5l1.4-0.3c1.9-0.5,3.9-1.2,5.8-2l1.3-0.6l8.1,4.4c3.3-2.2,6.4-4.9,9-8L79.2,69l0.7-1.2c1-1.8,1.9-3.6,2.6-5.5L83,61l8.8-2.6
		C92.5,55.6,92.8,52.8,92.8,50z M50,71.6c-12.1,0-22-9.9-22-22s9.9-22,22-22s22,9.9,22,22S62.1,71.6,50,71.6z"/>
	<path class="st0" d="M50,33.2c-9,0-16.4,7.3-16.4,16.4S41,66,50,66s16.4-7.3,16.4-16.4S59,33.2,50,33.2z"/>
	<path class="st1" d="M50,27.6c-12.1,0-22,9.9-22,22s9.9,22,22,22s22-9.9,22-22S62.1,27.6,50,27.6z M50,66c-9,0-16.4-7.3-16.4-16.4
		S41,33.2,50,33.2s16.4,7.3,16.4,16.4S59,66,50,66z"/>
	<path class="st1" d="M94.2,63.5c1.6-0.5,2.8-1.7,3.1-3.3c0.7-3.4,1.1-6.8,1.1-10.2c0-1.6-0.1-3.3-0.3-5c-0.2-1.6-1.2-3-2.7-3.7
		l-6.6-2.7c-0.4-1.4-0.9-2.7-1.4-4l3.4-6.3c0.8-1.4,0.7-3.2-0.2-4.6c-2.8-4.3-6.2-8.1-10.2-11.3c-1.3-1-3-1.3-4.5-0.7l-6.6,2.7
		c-1.2-0.7-2.5-1.3-3.8-1.8l-2-6.8C63,4.2,61.8,3,60.2,2.7C56.8,2,53.4,1.6,50,1.6c-1.6,0-3.3,0.1-5,0.3c-1.6,0.2-3,1.2-3.7,2.7
		l-2.7,6.6c-1.4,0.4-2.7,0.9-4,1.4l-6.3-3.4c-1.4-0.8-3.2-0.7-4.6,0.2c-4.3,2.8-8.1,6.2-11.3,10.2c-1,1.3-1.3,3-0.7,4.5l2.7,6.6
		c-0.7,1.2-1.3,2.5-1.8,3.8l-6.8,2C4.2,37,3,38.2,2.7,39.8C2,43.2,1.6,46.6,1.6,50c0,1.6,0.1,3.3,0.3,5c0.2,1.6,1.2,3,2.7,3.7
		l6.6,2.7c0.4,1.4,0.9,2.7,1.4,4l-3.4,6.3c-0.8,1.4-0.7,3.2,0.2,4.6c2.8,4.3,6.2,8.1,10.2,11.3c1.3,1,3,1.3,4.5,0.7l6.6-2.7
		c1.2,0.7,2.5,1.3,3.8,1.8l2,6.8c0.5,1.6,1.7,2.8,3.3,3.1c3.4,0.7,6.8,1.1,10.2,1.1c1.6,0,3.3-0.1,5-0.3c1.6-0.2,3-1.2,3.7-2.7
		l2.7-6.6c1.4-0.4,2.7-0.9,4-1.4l6.3,3.4c1.4,0.8,3.2,0.7,4.6-0.2c4.3-2.8,8.1-6.2,11.3-10.2c1-1.3,1.3-3,0.7-4.5l-2.7-6.6
		c0.7-1.2,1.3-2.5,1.8-3.8L94.2,63.5z M83.1,60.9l-0.5,1.3C81.9,64.1,81,66,80,67.7L79.2,69l3.5,8.5c-2.6,3.1-5.6,5.8-9,8l-8.1-4.4
		l-1.3,0.6c-1.9,0.9-3.8,1.5-5.8,2L57.1,84l-3.5,8.5c-1.3,0.1-2.5,0.2-3.7,0.2c-2.8,0-5.6-0.3-8.3-0.8L39,83.1l-1.3-0.5
		C35.9,81.9,34,81,32.3,80L31,79.2l-8.5,3.5c-3.1-2.6-5.8-5.6-8-9l4.4-8.1l-0.6-1.3c-0.9-1.9-1.5-3.8-2-5.8L16,57.1l-8.5-3.5
		c-0.1-1.3-0.2-2.5-0.2-3.7c0-2.8,0.3-5.6,0.8-8.3l8.8-2.6l0.5-1.3c0.7-1.9,1.6-3.8,2.6-5.5l0.7-1.2l-3.5-8.5c2.6-3.1,5.6-5.8,9-8
		l8.1,4.4l1.3-0.6c1.9-0.9,3.8-1.5,5.8-2l1.4-0.3l3.5-8.5c1.3-0.1,2.5-0.2,3.7-0.2c2.8,0,5.6,0.3,8.3,0.8l2.6,8.8l1.3,0.5
		c1.9,0.7,3.8,1.6,5.5,2.6l1.2,0.7l8.5-3.5c3.1,2.6,5.8,5.6,8,9L81,34.3l0.6,1.3c0.9,1.9,1.5,3.8,2,5.8l0.3,1.4l8.5,3.5
		c0.1,1.3,0.2,2.5,0.2,3.7c0,2.8-0.3,5.6-0.8,8.3L83.1,60.9z"/>
</g>
</svg>
