<?xml version="1.0" encoding="utf-8"?>
<!-- Generator: Adobe Illustrator 20.1.0, SVG Export Plug-In . SVG Version: 6.00 Build 0)  -->
<svg version="1.1" id="Layer_1" xmlns="http://www.w3.org/2000/svg" xmlns:xlink="http://www.w3.org/1999/xlink" x="0px" y="0px"
	 viewBox="0 0 100 100" style="enable-background:new 0 0 100 100;" xml:space="preserve">
<style type="text/css">
	.st0{fill:#FFFFFF;}
</style>
<g>
	<path class="st0" d="M74.8,85H7.4c-1.5,0-2.7,1.5-2.7,3s1.2,3,2.7,3h67.4c1.5,0,2.7-1.5,2.7-3S76.3,85,74.8,85z"/>
	<path class="st0" d="M93.3,85h-6c-1.5,0-2.7,1.5-2.7,3s1.2,3,2.7,3h6c1.5,0,2.7-1.5,2.7-3C95.9,86.5,94.7,85,93.3,85z"/>
	<path class="st0" d="M88.3,29H71.9L46.6,9.6C46.2,9.2,45.6,9,45,9H33.1c-1,0-2,0.6-2.4,1.6c-0.4,0.9-0.3,2,0.4,2.8L43.9,29H19.1
		l-1.5-6.5C17.3,21.4,16.2,20,15,20H5.6c-1.4,0-2.5,1.6-2.7,3L0.7,49.2c0,0.1,0,0.3,0,0.4c0,0.1,0,0.2,0,0.3s0,0.2,0.1,0.3
		c0,0.1,0,0.2,0.1,0.3c0,0.1,0.1,0.2,0.1,0.3c-0.1,0,0,0.1,0,0.2c0.1,0.1,0.1,0.2,0.2,0.3c0,0.1,0.1,0.1,0.1,0.2l0,0l0,0
		c0.1,0.1,0.1,0.1,0.2,0.2c0.1,0.1,0.1,0.1,0.2,0.2C1.8,51.9,1.9,52,2,52c0.1,0,0.1,0.1,0.2,0.1c0.1,0,0.2,0.1,0.3,0.1
		s0.1,0.4,0.2,0.4C3,52.7,3.1,53,3.3,53h18.4h15.5L23.7,68.9c-0.7,0.8-0.8,2.2-0.4,3.2c0.4,0.9,1.4,1.9,2.4,1.9h11.9
		c0.6,0,1.2-0.7,1.6-1.1l34.9-27c0.9-0.7,1.3-1.9,0.9-3S73.6,41,72.5,41H48c-0.8,0-1.6,0.3-2.1,0.9L41.6,47H23.8l-3.3-13h29.1H71
		h17.3c3.5,0,6.3,3,6.3,6.5S91.8,47,88.3,47h-5.9c-1.5,0-2.7,1.5-2.7,3s1.2,3,2.7,3h5.9c6.4,0,11.7-5.6,11.7-12S94.8,29,88.3,29z
		 M64.7,46L36.8,68h-5.3l17.8-22H64.7z M6.2,47L8,26h5l5.3,21H6.2z M44.1,14l19,15H50.9L38.8,14H44.1z"/>
</g>
</svg>
