<?xml version="1.0" encoding="utf-8"?>
<!-- Generator: Adobe Illustrator 20.1.0, SVG Export Plug-In . SVG Version: 6.00 Build 0)  -->
<svg version="1.1" id="Layer_1" xmlns="http://www.w3.org/2000/svg" xmlns:xlink="http://www.w3.org/1999/xlink" x="0px" y="0px"
	 viewBox="0 0 496.4 105.2" style="enable-background:new 0 0 496.4 105.2;" xml:space="preserve">
<style type="text/css">
	.st0{fill:none;}
	.st1{fill:#FFFFFF;}
	.st2{fill:#29323F;}
</style>
<g>
	<g>
		<path class="st0" d="M175.3,84.5c-1.4,6-1,9.3-0.6,10.5c0.3,0,0.6,0,1.2-0.1c1.8-0.3,4.1-1.1,6.6-2.3
			C179.8,90.2,177.4,87.5,175.3,84.5z"/>
		<path class="st0" d="M201.3,92c3.8,1.3,7.9,2.1,12.2,2.1c20.1,0,36.5-16.4,36.5-36.5c0-8.2-2.7-15.8-7.3-21.9
			c-4,9.6-10,20.2-17.8,30.8C217.3,76.7,209.1,85.4,201.3,92z"/>
		<path class="st1" d="M246.4,24.5c-0.9,3.5-2.2,7.2-3.8,11.2c4.6,6.1,7.3,13.7,7.3,21.9c0,20.1-16.4,36.5-36.5,36.5
			c-4.3,0-8.4-0.7-12.2-2.1c-3.2,2.7-6.4,5-9.5,7c6.5,3.4,13.8,5.3,21.6,5.3c25.8,0,46.7-20.9,46.7-46.7
			C260.1,44.7,254.9,33,246.4,24.5z"/>
		<g>
			<path class="st1" d="M228.4,13.3c-4.6-1.6-9.6-2.4-14.7-2.5c-0.1,0-0.2,0-0.3,0c-15.7,0-29.5,7.7-38,19.6l11.5,2.1
				c3.6-3.8,8-6.9,12.9-8.9c4.2-1.7,8.8-2.7,13.6-2.7c1.3,0,2.6,0.1,3.8,0.2c6.5,0.7,12.5,3.1,17.5,6.7c0.2-0.5,0.4-1.1,0.6-1.6
				c1.2-3.5,1.9-6.4,2.2-8.8C234.7,15.8,231.6,14.4,228.4,13.3z"/>
		</g>
		<path class="st1" d="M243.6,1.9c-2.3-1.7-5.7-2.2-8.8-1.7l0-0.1l-0.1,0c-5.9,0.9-13.2,4.7-21,10.7c5.1,0,10.1,0.9,14.7,2.5
			c3.1-1.7,5.8-2.7,7.9-3.1c0.8-0.1,0.9-0.1,1.1-0.1c0.4,1,0.7,3.3,0,7.4c-0.4,2.3-1.1,5.3-2.2,8.8c-0.2,0.5-0.4,1.1-0.6,1.6
			c-3.6,10.1-10,21.6-18,32.5c-8.5,11.6-17.5,20.5-25.2,26.3c-3.3,2.5-6.3,4.4-9,5.8c-2.5,1.3-4.7,2.1-6.6,2.3
			c-0.6,0.1-0.9,0.1-1.2,0.1c-0.4-1.2-0.8-4.5,0.6-10.5c-2.8-4-5-8.4-6.5-13.2c-5.9,15.1-6.4,27.4-0.2,32c2.3,1.7,5.3,2.2,8.8,1.7
			c4.2-0.6,9.1-2.7,14.3-6c3.1-1.9,6.2-4.3,9.5-7c7.8-6.6,16-15.3,23.6-25.5c7.8-10.5,13.8-21.2,17.8-30.8c1.6-3.9,2.9-7.7,3.8-11.2
			C249.2,13.8,248.5,5.5,243.6,1.9z"/>
		<g>
			<path class="st2" d="M187.2,20.2C173.3,20,161.9,31.1,161.8,45c-0.2,13.9,15.7,50.8,24.5,50.9c8.8,0.1,25.6-36.4,25.8-50.3
				C212.2,31.7,201.1,20.3,187.2,20.2z"/>
			
				<ellipse transform="matrix(0.9998 -1.900667e-02 1.900667e-02 0.9998 -0.8753 3.5582)" class="st1" cx="186.8" cy="47.8" rx="12.3" ry="12.3"/>
		</g>
	</g>
	<g>
		<path class="st2" d="M34.5,36.8c3.5,3,5.3,7.6,5.3,13.8c0,6.2-1.8,10.7-5.4,13.6c-3.6,2.9-9.1,4.3-16.5,4.3h-6.7v14H0V32.3h17.7
			C25.4,32.3,31,33.8,34.5,36.8z M26.3,56.5c1.3-1.5,2-3.7,2-6.6c0-2.9-0.9-5-2.6-6.2c-1.7-1.2-4.5-1.8-8.1-1.8h-6.4v16.9h7.5
			C22.5,58.8,25,58,26.3,56.5z"/>
		<path class="st2" d="M90.8,75.5C85.7,80.5,79.5,83,72,83c-7.4,0-13.7-2.5-18.7-7.4c-5.1-5-7.6-11.1-7.6-18.5
			c0-7.4,2.5-13.5,7.6-18.5c5.1-5,11.3-7.4,18.7-7.4c7.4,0,13.7,2.5,18.7,7.4c5.1,5,7.6,11.1,7.6,18.5
			C98.4,64.4,95.8,70.6,90.8,75.5z M87,57.1c0-4.5-1.4-8.3-4.3-11.4c-2.9-3.2-6.4-4.7-10.6-4.7c-4.2,0-7.7,1.6-10.6,4.7
			c-2.9,3.2-4.3,7-4.3,11.4c0,4.5,1.4,8.3,4.3,11.4c2.9,3.1,6.4,4.7,10.6,4.7c4.2,0,7.7-1.6,10.6-4.7C85.5,65.4,87,61.6,87,57.1z"/>
		<path class="st2" d="M142.4,36.8c3.5,3,5.3,7.6,5.3,13.8c0,6.2-1.8,10.7-5.4,13.6c-3.6,2.9-9.1,4.3-16.5,4.3H119v14h-11.2V32.3
			h17.7C133.3,32.3,138.9,33.8,142.4,36.8z M134.2,56.5c1.3-1.5,2-3.7,2-6.6c0-2.9-0.9-5-2.6-6.2c-1.7-1.2-4.5-1.8-8.1-1.8H119v16.9
			h7.5C130.3,58.8,132.8,58,134.2,56.5z"/>
	</g>
	<g>
		<path class="st1" d="M305.6,56.9h11.3v17.8c-5,5.5-11.9,8.3-20.7,8.3c-7.4,0-13.6-2.4-18.5-7.3c-5-4.9-7.5-11-7.5-18.5
			c0-7.4,2.5-13.6,7.6-18.6c5.1-5,11.2-7.5,18.4-7.5c7.2,0,13.5,2.4,18.8,7.1l-5.8,8.4c-2.2-2-4.3-3.3-6.2-4.1
			c-1.9-0.7-3.9-1.1-6.1-1.1c-4.3,0-7.8,1.4-10.8,4.3c-2.9,2.9-4.4,6.7-4.4,11.4c0,4.7,1.4,8.5,4.2,11.4c2.8,2.8,6.1,4.3,10,4.3
			c3.9,0,7.1-0.7,9.7-2.2V56.9z"/>
		<path class="st1" d="M340.1,69.5c1.9,2.3,4.4,3.5,7.5,3.5c3.2,0,5.7-1.2,7.5-3.5c1.8-2.3,2.8-5.5,2.8-9.5V32.3h11.2v28.1
			c0,7.3-2,12.9-6,16.8c-4,3.9-9.2,5.8-15.4,5.8c-6.3,0-11.4-2-15.5-5.9c-4-3.9-6.1-9.5-6.1-16.7V32.3h11.2V60
			C337.3,64,338.2,67.2,340.1,69.5z"/>
		<path class="st1" d="M380.7,32.3h11.2v50.2h-11.2V32.3z"/>
		<path class="st1" d="M442.6,38.8c4.8,4.4,7.2,10.5,7.2,18.3c0,7.8-2.3,14-7,18.5c-4.7,4.5-11.8,6.8-21.3,6.8h-17.1V32.3H422
			C430.9,32.3,437.8,34.5,442.6,38.8z M434.3,68.7c2.8-2.6,4.1-6.3,4.1-11.3c0-4.9-1.4-8.7-4.1-11.4c-2.8-2.7-7-4-12.7-4h-6.2v30.5
			h7.1C427.7,72.5,431.6,71.2,434.3,68.7z"/>
		<path class="st1" d="M495.6,32.3v10h-25v10.3h22.5v9.5h-22.5v10.4h25.8v9.9h-37V32.3H495.6z"/>
	</g>
</g>
</svg>
