<?xml version="1.0" encoding="utf-8"?>
<!-- Generator: Adobe Illustrator 20.1.0, SVG Export Plug-In . SVG Version: 6.00 Build 0)  -->
<svg version="1.1" id="Layer_1" xmlns="http://www.w3.org/2000/svg" xmlns:xlink="http://www.w3.org/1999/xlink" x="0px" y="0px"
	 viewBox="0 0 100 100" style="enable-background:new 0 0 100 100;" xml:space="preserve">
<style type="text/css">
	.st0{fill:#FFFFFF;}
</style>
<g>
	<path class="st0" d="M41.1,95.8c0.6,1,1.7,1.8,2.9,1.8h11.1c1.2,0,2.3-0.8,2.9-1.8l3.8-6.7c7.1-0.6,14.2-1.7,21-3.5
		c2.6-0.7,7.9-1.6,9.3-4.4c1.5-3-0.7-9.2-1.7-12.1c-2.1-6-5.8-11.4-12.1-13.4c-5.2-1.5-10.8-3.8-14.8-7.6c1.3-2.2,2.3-4.7,3.1-7.2
		c0.2-0.8,0.3-1.7,0.6-2.4c0,0.2,0.1,0.2,0.7-0.3c0.6-0.6,1-1.4,1.2-2.2c0.7-2.3,1.9-6.9,0.2-9.2c1.1-5.1,1.4-11.5-2-15.6
		C63.2,6.3,56,2.8,49.8,1.7C43.2,0.5,36.9,5,33,10c-3.8,4.8-4.2,11.2-2.2,16.8c-0.7,0.5-1.2,1.1-1.5,2.1c-0.6,2,0.2,4.5,0.9,6.4
		c1.5,4.4,3.1,8.9,5.5,12.8c-3.7,3.5-8.8,5.8-13.5,7.3c-5.6,1.8-9.5,4.9-12,10.4C8.3,69.8,7,74.5,6.8,79c-0.1,3.2,2.3,4.1,4.9,5.1
		c8,3,16.9,4.6,25.8,5.2L41.1,95.8z M45.1,89.6l-4-4c-0.2-0.2-0.2-0.6,0-0.8l1.6-1.6c0.2-0.2,0.6-0.2,0.8,0l3.6,3.6
		c0.2,0.2,0.6,0.2,0.8,0l7.9-7.9c0.2-0.2,0.6-0.2,0.8,0l1.6,1.6c0.2,0.2,0.2,0.6,0,0.8L47.8,91.6c-0.2,0.2-0.6,0.2-0.8,0L45.1,89.6z
		 M33,31.9c0,0.1-0.1-2-0.4-1.8c0.4-0.3,1-0.7,1.3-0.9c0.9-0.7,1.1-1.5,0.7-2.6c-2-4.6-1.7-11,2.2-15.2S45.4,4.4,51,6
		c4.5,1.3,9.9,3.8,13,7.4c3,3.5,2.2,9.5,1.2,13.6c-0.2,1,0.3,2,1.3,2.3c-0.8-0.3-0.4,1.5-0.6,2.5c-0.1,0.8-0.2,2-0.5,2.8
		c-0.5,1-1.3,1.3-1.8,2.3c-0.6,1.1-0.7,2.8-1.1,4c-0.8,2.3-1.8,4.7-3.2,6.7c-6.7,6.2-12.4,6.4-19,0.6c-2.9-3.5-4.3-7.7-5.8-11.9
		C34,34.9,33.3,33.5,33,31.9z M11.5,79.3c-0.1,0-0.2-0.1-0.3-0.1c0-0.2,0-0.4,0-0.6c0.7-3.8,1.3-7.5,3.1-11.1
		c1.2-2.4,2.9-4.7,5.2-6.1c3-1.8,6.8-2.2,10-3.7c2.9-1.3,5.8-3.3,8.3-5.2c2.2,1.9,4.5,3.2,6.7,4c1.7,0.8,3.5,1.2,5.3,1
		c2.4-0.1,4.5-0.7,6.4-1.7c1.7-0.8,3.4-1.9,5-3.3c4.5,3.8,10.4,6.3,15.9,7.9c0.2,0.1,0.4,0.1,0.6,0.1c4.6,1.7,7.1,6.2,8.6,10.7
		c0.5,1.7,1,3.5,1.3,5.2c0.1,0.7,0.2,1.4,0.3,2.1c0,0.2,0,0.4,0,0.6h-0.1c-0.6,0.1-1.4,0.6-2,0.8c-2.2,0.8-4.4,1.4-6.6,1.9
		c-5,1.2-10,1.9-15.1,2.5c0-0.6-0.2-1.1-0.4-1.6L58,73.2c-0.6-1-1.7-1.6-2.9-1.6H44c-1.2,0-2.3,0.5-2.9,1.6l-5.6,9.6
		c-0.3,0.5-0.5,1.1-0.4,1.7c-6.5-0.6-13-1.8-19.2-3.6C14.5,80.4,13,79.6,11.5,79.3z"/>
</g>
</svg>
